<svg width="100" height="100" viewBox="0 0 100 100" fill="none" xmlns="http://www.w3.org/2000/svg">
<style>
  .background { fill: #FAFDFC; }
  .on-background { fill: #006A67; }
  
  @media (prefers-color-scheme: dark) {
    .background { fill: #191C1C; }
    .on-background { fill: #4EDAD5; }
  }
</style>
<rect width="100" height="100" rx="32" class="background"/>
<path d="M31.988 35.96C34.0707 35.96 35.86 36.3267 37.356 37.06C38.8813 37.7933 40.0693 38.8347 40.92 40.184C41.7707 41.5333 42.196 43.1613 42.196 45.068C42.196 46.9453 41.7707 48.5733 40.92 49.952C40.0693 51.3013 38.8813 52.3427 37.356 53.076C35.86 53.8093 34.0707 54.176 31.988 54.176H25.52V65H20.812V35.96H31.988ZM31.24 50.128C33.3227 50.128 34.848 49.7027 35.816 48.852C36.8133 47.972 37.312 46.7107 37.312 45.068C37.312 43.396 36.8133 42.1347 35.816 41.284C34.848 40.404 33.3227 39.964 31.24 39.964H25.52V50.128H31.24ZM52.1059 35.96V65H47.3979V35.96H52.1059ZM81.5863 65H76.0423L68.8703 53.824L61.7423 65H56.3303L66.4062 50.26L57.1223 35.96H62.6663L69.3103 46.52L76.0423 35.96H81.1903L71.7743 50.084L81.5863 65Z" class="on-background"/>
</svg>
